# xmcd CD database file
#
# Track frame offsets:
#	150
#	11591
#	23110
#	35730
#	46880
#	57821
#	70272
#	82280
#	92735
#	105877
#	118019
#	129484
#	143613
#	154133
#	166578
#	177503
#	191233
#
# Disc length: 2729 seconds
#
# Revision: 0
# Processed by: cddbd v1.5.1PL2 Copyright (c) Steve Scherf et al.
# Submitted via: CDex 1.51
#
DISCID=e00aa711
DTITLE=Slim Whitman - Too Old To Dream
DYEAR=2005
DGENRE=Country
TTITLE0=Cattle Call
TTITLE1=When I Grow too Old to Dream
TTITLE2=North Wind
TTITLE3=Singing Hills
TTITLE4=Ride Away
TTITLE5=Lord Help Me be as Thou
TTITLE6=We Stood at the Alter
TTITLE7=Rose Marie
TTITLE8=Love Song of the Water Fall
TTITLE9=My Heart is Broken in three
TTITLE10=I Hate to See Go
TTITLE11=I'll Never Pass This Way again
TTITLE12=Beautiful Dreamer
TTITLE13=By the Waters of the Minnetonka
TTITLE14=Keep it a Secret
TTITLE15=In a Hundred Years or More
TTITLE16=End of the World
EXTD=YEAR: 2005
EXTT0=
EXTT1=
EXTT2=
EXTT3=
EXTT4=
EXTT5=
EXTT6=
EXTT7=
EXTT8=
EXTT9=
EXTT10=
EXTT11=
EXTT12=
EXTT13=
EXTT14=
EXTT15=
EXTT16=
PLAYORDER=
